<svg width="22" height="22" viewBox="0 0 22 22" fill="none" xmlns="http://www.w3.org/2000/svg">
<g clip-path="url(#clip0_32_607)">
<path d="M1.375 1.375V19.9375C1.375 20.1198 1.44743 20.2947 1.57636 20.4236C1.7053 20.5526 1.88016 20.625 2.0625 20.625H20.625" stroke="#616161" stroke-width="2" stroke-linecap="round" stroke-linejoin="round"/>
<path d="M6.70312 9.625H4.98438C4.50976 9.625 4.125 10.0098 4.125 10.4844V17.0156C4.125 17.4902 4.50976 17.875 4.98438 17.875H6.70312C7.17774 17.875 7.5625 17.4902 7.5625 17.0156V10.4844C7.5625 10.0098 7.17774 9.625 6.70312 9.625Z" stroke="#616161" stroke-width="2" stroke-linecap="round" stroke-linejoin="round"/>
<path d="M12.8906 7.5625H11.1719C10.6973 7.5625 10.3125 7.94726 10.3125 8.42188V17.0156C10.3125 17.4902 10.6973 17.875 11.1719 17.875H12.8906C13.3652 17.875 13.75 17.4902 13.75 17.0156V8.42188C13.75 7.94726 13.3652 7.5625 12.8906 7.5625Z" stroke="#616161" stroke-width="2" stroke-linecap="round" stroke-linejoin="round"/>
<path d="M19.0627 4.8125H17.3439C16.8693 4.8125 16.4846 5.19726 16.4846 5.67188V17.0156C16.4846 17.4902 16.8693 17.875 17.3439 17.875H19.0627C19.5373 17.875 19.9221 17.4902 19.9221 17.0156V5.67188C19.9221 5.19726 19.5373 4.8125 19.0627 4.8125Z" stroke="#616161" stroke-width="2" stroke-linecap="round" stroke-linejoin="round"/>
</g>
<defs>
<clipPath id="clip0_32_607">
<rect width="22" height="22" fill="white"/>
</clipPath>
</defs>
</svg>
