<svg width="25" height="26" viewBox="0 0 25 26" fill="none" xmlns="http://www.w3.org/2000/svg">
<path d="M12.8326 9.63991C12.1382 9.57022 11.4396 9.72034 10.8324 10.0697C10.2252 10.4191 9.73916 10.9507 9.44074 11.5916C9.14232 12.2326 9.04615 12.9516 9.1654 13.6503C9.28464 14.3489 9.61347 14.993 10.1069 15.4944C10.6003 15.9958 11.2341 16.33 11.9216 16.4512C12.6091 16.5723 13.3167 16.4746 13.9474 16.1714C14.5781 15.8681 15.1012 15.3741 15.445 14.7571C15.7888 14.1401 15.9366 13.4301 15.868 12.7245C15.7898 11.9334 15.4449 11.1942 14.8917 10.632C14.3385 10.0699 13.611 9.71936 12.8326 9.63991ZM20.9816 13.0625C20.9794 13.4363 20.9524 13.8096 20.9007 14.1797L23.2914 16.0853C23.3955 16.173 23.4657 16.2953 23.4894 16.4306C23.5131 16.5659 23.4889 16.7053 23.421 16.8242L21.1593 20.8008C21.0906 20.9185 20.9832 21.0078 20.8561 21.0529C20.729 21.098 20.5903 21.0961 20.4644 21.0475L18.09 20.0759C17.9591 20.0229 17.8173 20.0038 17.6773 20.0202C17.5373 20.0366 17.4035 20.088 17.2878 20.1699C16.9255 20.4235 16.5447 20.6488 16.1488 20.8438C16.0243 20.9053 15.9167 20.997 15.8353 21.1107C15.754 21.2245 15.7014 21.3569 15.6824 21.4962L15.3265 24.0697C15.3031 24.2056 15.234 24.3291 15.131 24.419C15.028 24.5088 14.8975 24.5596 14.7617 24.5625H10.2383C10.1048 24.5602 9.97604 24.5117 9.87329 24.425C9.77053 24.3384 9.69988 24.2187 9.67298 24.0858L9.31762 21.5161C9.29767 21.3752 9.24378 21.2416 9.16075 21.127C9.07772 21.0125 8.96812 20.9205 8.84169 20.8594C8.44626 20.6654 8.06676 20.4395 7.70687 20.1839C7.59164 20.1024 7.45827 20.0514 7.31878 20.0353C7.17929 20.0193 7.03807 20.0388 6.90783 20.092L4.53401 21.0631C4.40821 21.1117 4.26954 21.1137 4.14243 21.0687C4.01531 21.0237 3.90792 20.9345 3.83915 20.8169L1.57743 16.8403C1.50943 16.7215 1.48513 16.582 1.50886 16.4467C1.53258 16.3114 1.60279 16.189 1.70699 16.1014L3.72757 14.4893C3.83827 14.4 3.92527 14.284 3.98068 14.1518C4.03609 14.0197 4.05815 13.8756 4.04486 13.7326C4.02582 13.5085 4.01419 13.285 4.01419 13.0609C4.01419 12.8368 4.02529 12.6165 4.04486 12.3972C4.05669 12.2551 4.03355 12.1122 3.97752 11.9814C3.92148 11.8507 3.83432 11.7361 3.72387 11.6481L1.70434 10.036C1.60184 9.94788 1.53311 9.82595 1.51019 9.69154C1.48728 9.55713 1.51164 9.41881 1.57902 9.30082L3.84074 5.32418C3.90942 5.20649 4.01678 5.11721 4.1439 5.07209C4.27102 5.02696 4.40973 5.02889 4.53559 5.07752L6.90995 6.04911C7.04088 6.10209 7.18271 6.12123 7.32271 6.10482C7.46272 6.08841 7.59653 6.03695 7.71215 5.95507C8.07452 5.70149 8.4553 5.47622 8.85121 5.28119C8.97568 5.21971 9.08334 5.12804 9.16468 5.01426C9.24603 4.90048 9.29855 4.7681 9.31762 4.62881L9.67351 2.05528C9.69689 1.91937 9.76598 1.79592 9.86899 1.70604C9.97201 1.61616 10.1025 1.56542 10.2383 1.5625H14.7617C14.8952 1.56485 15.024 1.61334 15.1267 1.69998C15.2295 1.78662 15.3001 1.90625 15.327 2.03916L15.6824 4.60893C15.7023 4.74976 15.7562 4.88339 15.8393 4.99796C15.9223 5.11252 16.0319 5.20446 16.1583 5.26561C16.5537 5.45958 16.9332 5.68547 17.2931 5.9411C17.4084 6.02257 17.5417 6.07363 17.6812 6.08967C17.8207 6.10571 17.9619 6.08624 18.0922 6.03299L20.466 5.06194C20.5918 5.01326 20.7305 5.01125 20.8576 5.05628C20.9847 5.1013 21.0921 5.19046 21.1608 5.30806L23.4226 9.2847C23.4906 9.40351 23.5149 9.54298 23.4911 9.67829C23.4674 9.8136 23.3972 9.93597 23.293 10.0236L21.2724 11.6357C21.1612 11.7248 21.0737 11.8406 21.0179 11.9728C20.962 12.1049 20.9395 12.2492 20.9525 12.3924C20.9699 12.6149 20.9816 12.8384 20.9816 13.0625Z" stroke="#616161" stroke-width="2" stroke-linecap="round" stroke-linejoin="round"/>
</svg>
