<svg width="17" height="25" viewBox="0 0 17 25" fill="none" xmlns="http://www.w3.org/2000/svg">
<path d="M12.25 2.8158H13.75C14.3467 2.8158 14.919 3.07332 15.341 3.53172C15.7629 3.99013 16 4.61185 16 5.26013V21.5557C16 22.204 15.7629 22.8257 15.341 23.2841C14.919 23.7425 14.3467 24 13.75 24H3.25C2.65326 24 2.08097 23.7425 1.65901 23.2841C1.23705 22.8257 1 22.204 1 21.5557V5.26013C1 4.61185 1.23705 3.99013 1.65901 3.53172C2.08097 3.07332 2.65326 2.8158 3.25 2.8158H4.75" stroke="#656565" stroke-width="2" stroke-linejoin="round"/>
<path d="M10.9317 1H6.0684C5.41699 1 4.88892 1.55319 4.88892 2.23559V2.79073C4.88892 3.47312 5.41699 4.02632 6.0684 4.02632H10.9317C11.5831 4.02632 12.1111 3.47312 12.1111 2.79073V2.23559C12.1111 1.55319 11.5831 1 10.9317 1Z" stroke="#656565" stroke-width="2" stroke-linejoin="round"/>
</svg>
