<svg width="25" height="24" viewBox="0 0 25 24" fill="none" xmlns="http://www.w3.org/2000/svg">
<path d="M7.32355 15.8824V1L8.94119 1.8268L10.5588 1L12.1735 1.8268L13.8098 1L15.4118 1.8268L17.0188 1L18.6329 1.8268L20.2647 1L21.8829 1.8268L23.5 1V12.5752" stroke="#616161" stroke-width="2" stroke-linejoin="round"/>
<path d="M23.5 12.647V18.6862C23.5 19.8303 23.0861 20.9275 22.3493 21.7365C21.6126 22.5455 20.6134 23 19.5714 23M19.5714 23C18.5295 23 17.5303 22.5455 16.7935 21.7365C16.0568 20.9275 15.6429 19.8303 15.6429 18.6862V16.098H2.28574C2.18231 16.097 2.07972 16.1186 1.98398 16.1616C1.88824 16.2046 1.80126 16.2681 1.72812 16.3485C1.65497 16.4288 1.59713 16.5243 1.55797 16.6294C1.51881 16.7345 1.49911 16.8472 1.50003 16.9608C1.50003 20.4117 1.83101 23 5.4286 23H19.5714Z" stroke="#616161" stroke-width="2" stroke-linejoin="round"/>
<path d="M11.2059 6.17645H19.6176M14.0098 10.0588H19.6176" stroke="#616161" stroke-width="2" stroke-linecap="round" stroke-linejoin="round"/>
</svg>
