<svg width="25" height="21" viewBox="0 0 25 21" fill="none" xmlns="http://www.w3.org/2000/svg">
<path d="M12.5 5.75C13.2857 2.6249 16.2533 1.0292 22.7143 1.00001C22.8176 0.999613 22.9199 1.01982 23.0154 1.05947C23.1109 1.09911 23.1977 1.15741 23.2707 1.231C23.3438 1.3046 23.4016 1.39202 23.441 1.48825C23.4803 1.58448 23.5004 1.6876 23.5 1.79167V16.0417C23.5 16.2516 23.4172 16.453 23.2699 16.6015C23.1225 16.7499 22.9227 16.8333 22.7143 16.8333C16.4286 16.8333 14.0002 18.1104 12.5 20M12.5 5.75C11.7143 2.6249 8.74674 1.0292 2.28572 1.00001C2.18243 0.999613 2.08008 1.01982 1.98458 1.05947C1.88908 1.09911 1.80231 1.15741 1.72927 1.231C1.65623 1.3046 1.59837 1.39202 1.55902 1.48825C1.51967 1.58448 1.49962 1.6876 1.50001 1.79167V15.9462C1.50001 16.435 1.80054 16.8333 2.28572 16.8333C8.57143 16.8333 11.0086 18.1198 12.5 20M12.5 5.75V20" stroke="#656565" stroke-width="2" stroke-linecap="round" stroke-linejoin="round"/>
</svg>
