<svg width="23" height="26" viewBox="0 0 23 26" fill="none" xmlns="http://www.w3.org/2000/svg">
<path d="M15.1257 20.0312V20.9375C15.1257 21.8989 14.7438 22.8209 14.064 23.5008C13.3841 24.1806 12.4621 24.5625 11.5007 24.5625C10.5393 24.5625 9.61726 24.1806 8.93745 23.5008C8.25763 22.8209 7.87571 21.8989 7.87571 20.9375V20.0312M21.2248 18.1865C19.7702 16.4062 18.7433 15.5 18.7433 10.5921C18.7433 6.09766 16.4483 4.49643 14.5593 3.71875C14.3084 3.61566 14.0722 3.37891 13.9957 3.12119C13.6644 1.99348 12.7355 1 11.5007 1C10.2659 1 9.33647 1.99404 9.00852 3.12232C8.93205 3.38287 8.69586 3.61566 8.44495 3.71875C6.55372 4.49756 4.2609 6.09313 4.2609 10.5921C4.25807 15.5 3.23118 16.4062 1.77664 18.1865C1.17399 18.9239 1.70188 20.0312 2.75596 20.0312H20.2511C21.2995 20.0312 21.824 18.9205 21.2248 18.1865Z" stroke="#616161" stroke-width="2" stroke-linecap="round" stroke-linejoin="round"/>
</svg>
