<svg width="23" height="22" viewBox="0 0 23 22" fill="none" xmlns="http://www.w3.org/2000/svg">
<g clip-path="url(#clip0_196_529)">
<path d="M1.875 1.375V19.9375C1.875 20.1198 1.94743 20.2947 2.07636 20.4236C2.2053 20.5526 2.38016 20.625 2.5625 20.625H21.125" stroke="#616161" stroke-width="2" stroke-linecap="round" stroke-linejoin="round"/>
<path d="M7.20312 9.625H5.48438C5.00976 9.625 4.625 10.0098 4.625 10.4844V17.0156C4.625 17.4902 5.00976 17.875 5.48438 17.875H7.20312C7.67774 17.875 8.0625 17.4902 8.0625 17.0156V10.4844C8.0625 10.0098 7.67774 9.625 7.20312 9.625Z" stroke="#616161" stroke-width="2" stroke-linecap="round" stroke-linejoin="round"/>
<path d="M13.3906 7.5625H11.6719C11.1973 7.5625 10.8125 7.94726 10.8125 8.42188V17.0156C10.8125 17.4902 11.1973 17.875 11.6719 17.875H13.3906C13.8652 17.875 14.25 17.4902 14.25 17.0156V8.42188C14.25 7.94726 13.8652 7.5625 13.3906 7.5625Z" stroke="#616161" stroke-width="2" stroke-linecap="round" stroke-linejoin="round"/>
<path d="M19.5627 4.8125H17.8439C17.3693 4.8125 16.9846 5.19726 16.9846 5.67188V17.0156C16.9846 17.4902 17.3693 17.875 17.8439 17.875H19.5627C20.0373 17.875 20.4221 17.4902 20.4221 17.0156V5.67188C20.4221 5.19726 20.0373 4.8125 19.5627 4.8125Z" stroke="#616161" stroke-width="2" stroke-linecap="round" stroke-linejoin="round"/>
</g>
<defs>
<clipPath id="clip0_196_529">
<rect width="22" height="22" fill="white" transform="translate(0.5)"/>
</clipPath>
</defs>
</svg>
