<svg width="23" height="17" viewBox="0 0 23 17" fill="none" xmlns="http://www.w3.org/2000/svg">
<path d="M18.4049 4.5C18.2689 6.47701 16.8685 8 15.3415 8C13.8144 8 12.4118 6.4775 12.2781 4.5C12.1388 2.44326 13.5021 1 15.3415 1C17.1809 1 18.5441 2.48069 18.4049 4.5Z" stroke="#656565" stroke-width="2" stroke-linecap="round" stroke-linejoin="round"/>
<path d="M15.3415 10.5C12.3279 10.5 9.42999 12.0896 8.70401 15.1853C8.60783 15.5949 8.84967 16 9.24595 16H21.4374C21.8337 16 22.0741 15.5949 21.9794 15.1853C21.2534 12.04 18.3554 10.5 15.3415 10.5Z" stroke="#656565" stroke-width="2" stroke-miterlimit="10"/>
<path d="M9.18715 5.24716C9.07443 6.78716 7.90005 8 6.63416 8C5.36826 8 4.19196 6.78763 4.08117 5.24716C3.96604 3.64504 5.10911 2.5 6.63416 2.5C8.15921 2.5 9.30227 3.67444 9.18715 5.24716Z" stroke="#656565" stroke-width="2" stroke-linecap="round" stroke-linejoin="round"/>
<path d="M9.19512 11.012C8.34504 10.6422 7.40878 10.5 6.41647 10.5C3.96749 10.5 1.608 11.656 1.01694 13.9075C0.939236 14.2053 1.1361 14.5 1.45823 14.5H6.74614" stroke="#656565" stroke-width="2" stroke-miterlimit="10" stroke-linecap="round"/>
</svg>
