<svg width="18" height="12" viewBox="0 0 18 12" fill="none" xmlns="http://www.w3.org/2000/svg">
<path d="M8.98755 1C6.2041 1 3.34886 2.60391 1.1011 5.81173C1.03694 5.9043 1.00178 6.01373 1.00007 6.12619C0.99835 6.23865 1.03015 6.34909 1.09146 6.44356C2.81853 9.13511 5.63555 11.24 8.98755 11.24C12.3031 11.24 15.178 9.12871 16.9083 6.43111C16.9682 6.33849 17 6.23068 17 6.12053C17 6.01039 16.9682 5.90257 16.9083 5.80996C15.1741 3.14329 12.2781 1 8.98755 1Z" stroke="white" stroke-width="1.5" stroke-linecap="round" stroke-linejoin="round"/>
<path d="M8.99987 8.68017C10.5905 8.68017 11.8799 7.39075 11.8799 5.80017C11.8799 4.20959 10.5905 2.92017 8.99987 2.92017C7.40929 2.92017 6.11987 4.20959 6.11987 5.80017C6.11987 7.39075 7.40929 8.68017 8.99987 8.68017Z" stroke="white" stroke-width="1.5" stroke-miterlimit="10"/>
</svg>
