<svg width="512" height="512" viewBox="0 0 512 512" fill="none" xmlns="http://www.w3.org/2000/svg">
<path d="M400 96V56C400 53.8783 399.157 51.8434 397.657 50.3431C396.157 48.8429 394.122 48 392 48H120C117.878 48 115.843 48.8429 114.343 50.3431C112.843 51.8434 112 53.8783 112 56V96" fill="white"/>
<path d="M408 112H104C89.1479 112 74.9041 117.9 64.402 128.402C53.9 138.904 48 153.148 48 168V376C48 378.122 48.8429 380.157 50.3431 381.657C51.8434 383.157 53.8783 384 56 384H112V456C112 458.122 112.843 460.157 114.343 461.657C115.843 463.157 117.878 464 120 464H392C394.122 464 396.157 463.157 397.657 461.657C399.157 460.157 400 458.122 400 456V384H456C458.122 384 460.157 383.157 461.657 381.657C463.157 380.157 464 378.122 464 376V168C464 153.148 458.1 138.904 447.598 128.402C437.096 117.9 422.852 112 408 112ZM360 420C360 421.061 359.579 422.078 358.828 422.828C358.078 423.579 357.061 424 356 424H156C154.939 424 153.922 423.579 153.172 422.828C152.421 422.078 152 421.061 152 420V268C152 266.939 152.421 265.922 153.172 265.172C153.922 264.421 154.939 264 156 264H356C357.061 264 358.078 264.421 358.828 265.172C359.579 265.922 360 266.939 360 268V420ZM394 207.92C389.105 208.313 384.207 207.196 379.967 204.718C375.727 202.24 372.35 198.521 370.29 194.063C368.23 189.605 367.588 184.623 368.449 179.788C369.31 174.953 371.634 170.499 375.107 167.027C378.579 163.554 383.033 161.23 387.868 160.369C392.703 159.508 397.685 160.15 402.143 162.21C406.601 164.27 410.32 167.647 412.798 171.887C415.276 176.127 416.393 181.025 416 185.92C415.543 191.602 413.079 196.937 409.048 200.968C405.017 204.999 399.682 207.463 394 207.92Z" fill="white"/>
</svg>
