<svg width="27" height="27" viewBox="0 0 27 27" fill="none" xmlns="http://www.w3.org/2000/svg">
<path d="M3.375 10.125V6.32812C3.375 5.76868 3.59724 5.23216 3.99282 4.83657C4.38841 4.44099 4.92493 4.21875 5.48438 4.21875H9.48639C9.90288 4.21876 10.31 4.34207 10.6566 4.57313L12.1247 5.55187C12.4712 5.78293 12.8784 5.90624 13.2949 5.90625H21.5156C22.0751 5.90625 22.6116 6.12849 23.0072 6.52407C23.4028 6.91966 23.625 7.45618 23.625 8.01562V10.125" stroke="black" stroke-width="2" stroke-linecap="round" stroke-linejoin="round"/>
<path d="M25.3072 11.947L24.4518 20.6719C24.4518 21.2307 24.2301 21.7666 23.8353 22.1621C23.4405 22.5576 22.905 22.7803 22.3462 22.7812H4.65378C4.09498 22.7803 3.5594 22.5576 3.16461 22.1621C2.76983 21.7666 2.5481 21.2307 2.5481 20.6719L1.69274 11.947C1.67418 11.7148 1.7039 11.4812 1.78002 11.2611C1.85613 11.0409 1.97701 10.8389 2.13504 10.6678C2.29306 10.4966 2.4848 10.36 2.6982 10.2666C2.9116 10.1732 3.14203 10.125 3.37497 10.125H23.6302C23.8627 10.1257 24.0926 10.1745 24.3054 10.2682C24.5181 10.3619 24.7092 10.4986 24.8667 10.6697C25.0242 10.8408 25.1446 11.0425 25.2204 11.2623C25.2962 11.4821 25.3257 11.7152 25.3072 11.947Z" stroke="black" stroke-width="2" stroke-linecap="round" stroke-linejoin="round"/>
</svg>
