<svg width="26" height="26" viewBox="0 0 26 26" fill="none" xmlns="http://www.w3.org/2000/svg">
<path d="M16.25 7.41406C16.25 7.41406 17.487 6.80469 13 6.80469C11.393 6.80469 9.82215 7.28121 8.486 8.174C7.14985 9.06678 6.10844 10.3357 5.49348 11.8204C4.87852 13.305 4.71762 14.9387 5.03112 16.5148C5.34463 18.0909 6.11846 19.5386 7.25476 20.6749C8.39106 21.8112 9.8388 22.5851 11.4149 22.8986C12.991 23.2121 14.6247 23.0512 16.1093 22.4362C17.594 21.8212 18.8629 20.7798 19.7557 19.4437C20.6485 18.1075 21.125 16.5367 21.125 14.9297" stroke="black" stroke-width="2" stroke-miterlimit="10" stroke-linecap="square"/>
<path d="M13 2.94531L17.0625 7.00781L13 11.0703" stroke="black" stroke-width="2" stroke-miterlimit="10" stroke-linecap="square"/>
</svg>
