<svg width="18" height="18" viewBox="0 0 18 18" fill="none" xmlns="http://www.w3.org/2000/svg">
<path d="M8.9107 0.875C4.43062 0.875 0.785698 4.51992 0.785698 9C0.785698 13.4801 4.43062 17.125 8.9107 17.125C13.3908 17.125 17.0357 13.4801 17.0357 9C17.0357 4.51992 13.3908 0.875 8.9107 0.875ZM12.0357 9.625H5.7857C5.61994 9.625 5.46097 9.55915 5.34376 9.44194C5.22655 9.32473 5.1607 9.16576 5.1607 9C5.1607 8.83424 5.22655 8.67527 5.34376 8.55806C5.46097 8.44085 5.61994 8.375 5.7857 8.375H12.0357C12.2015 8.375 12.3604 8.44085 12.4776 8.55806C12.5949 8.67527 12.6607 8.83424 12.6607 9C12.6607 9.16576 12.5949 9.32473 12.4776 9.44194C12.3604 9.55915 12.2015 9.625 12.0357 9.625Z" fill="white"/>
</svg>
