<svg width="21" height="20" viewBox="0 0 21 20" fill="none" xmlns="http://www.w3.org/2000/svg">
<path d="M18.8771 2.08009C18.82 2.01737 18.7508 1.96688 18.6737 1.93166C18.5965 1.89644 18.513 1.87723 18.4283 1.87518C18.3435 1.87314 18.2592 1.8883 18.1804 1.91976C18.1017 1.95122 18.0301 1.99832 17.9701 2.05821L17.4869 2.53907C17.4283 2.59767 17.3954 2.67713 17.3954 2.75997C17.3954 2.84282 17.4283 2.92227 17.4869 2.98087L17.9298 3.42306C17.9589 3.45223 17.9934 3.47538 18.0314 3.49118C18.0694 3.50697 18.1102 3.5151 18.1513 3.5151C18.1925 3.5151 18.2332 3.50697 18.2712 3.49118C18.3093 3.47538 18.3438 3.45223 18.3728 3.42306L18.8439 2.95431C19.0822 2.71642 19.1044 2.32892 18.8771 2.08009ZM16.5099 3.51564L9.45835 10.5547C9.4156 10.5973 9.38453 10.6501 9.36812 10.7082L9.04195 11.6797C9.03413 11.7061 9.03358 11.734 9.04035 11.7607C9.04711 11.7873 9.06094 11.8117 9.08038 11.8311C9.09983 11.8505 9.12415 11.8644 9.1508 11.8711C9.17745 11.8779 9.20543 11.8774 9.23179 11.8695L10.2025 11.5434C10.2606 11.527 10.3134 11.4959 10.356 11.4531L17.3951 4.40079C17.4602 4.33497 17.4967 4.24612 17.4967 4.15353C17.4967 4.06094 17.4602 3.97208 17.3951 3.90626L17.0064 3.51564C16.9405 3.44992 16.8512 3.41302 16.7582 3.41302C16.6651 3.41302 16.5758 3.44992 16.5099 3.51564Z" fill="white"/>
<path d="M16.0021 7.56484L11.2408 12.3355C11.0568 12.52 10.8306 12.6569 10.5818 12.7344L9.57007 13.073C9.32997 13.1409 9.07612 13.1434 8.8347 13.0805C8.59328 13.0175 8.37301 12.8913 8.19659 12.7149C8.02017 12.5385 7.89398 12.3182 7.83102 12.0768C7.76807 11.8354 7.77063 11.5815 7.83843 11.3414L8.1771 10.3297C8.25435 10.081 8.39096 9.85481 8.57515 9.6707L13.3459 4.90859C13.3896 4.86491 13.4194 4.80924 13.4315 4.74863C13.4436 4.68801 13.4374 4.62517 13.4138 4.56806C13.3902 4.51094 13.3501 4.46211 13.2987 4.42775C13.2474 4.39339 13.187 4.37503 13.1252 4.375H4.9732C4.39304 4.375 3.83664 4.60547 3.4264 5.0157C3.01617 5.42594 2.7857 5.98234 2.7857 6.5625V15.9375C2.7857 16.5177 3.01617 17.0741 3.4264 17.4843C3.83664 17.8945 4.39304 18.125 4.9732 18.125H14.3482C14.9284 18.125 15.4848 17.8945 15.895 17.4843C16.3052 17.0741 16.5357 16.5177 16.5357 15.9375V7.78555C16.5357 7.72374 16.5173 7.66333 16.4829 7.61195C16.4486 7.56057 16.3998 7.52054 16.3426 7.49692C16.2855 7.47329 16.2227 7.46714 16.1621 7.47923C16.1015 7.49132 16.0458 7.52111 16.0021 7.56484Z" fill="white"/>
</svg>
