<svg width="14" height="17" viewBox="0 0 14 17" fill="none" xmlns="http://www.w3.org/2000/svg">
<path d="M13.4167 2.31579H9.91667V1.44737C9.91667 1.0635 9.76302 0.695359 9.48953 0.423924C9.21604 0.15249 8.84511 0 8.45833 0H5.54167C5.15489 0 4.78396 0.15249 4.51047 0.423924C4.23698 0.695359 4.08333 1.0635 4.08333 1.44737V2.31579H0.583333C0.428624 2.31579 0.280251 2.37679 0.170854 2.48536C0.0614583 2.59393 0 2.74119 0 2.89474C0 3.04828 0.0614583 3.19554 0.170854 3.30411C0.280251 3.41269 0.428624 3.47368 0.583333 3.47368H1.20312L1.89583 14.507C1.9476 15.4785 2.69792 16.2105 3.64583 16.2105H10.3542C11.3068 16.2105 12.0422 15.4948 12.1042 14.5099L12.7969 3.47368H13.4167C13.5714 3.47368 13.7198 3.41269 13.8291 3.30411C13.9385 3.19554 14 3.04828 14 2.89474C14 2.74119 13.9385 2.59393 13.8291 2.48536C13.7198 2.37679 13.5714 2.31579 13.4167 2.31579ZM4.68745 13.8947H4.66667C4.51549 13.8948 4.37018 13.8367 4.26136 13.7325C4.15255 13.6284 4.08872 13.4864 4.08333 13.3364L3.79167 5.23115C3.78616 5.07761 3.84233 4.92817 3.94783 4.81573C4.05333 4.70329 4.19951 4.63705 4.35422 4.63158C4.50893 4.62611 4.65949 4.68186 4.77278 4.78656C4.88608 4.89127 4.95282 5.03636 4.95833 5.1899L5.25 13.2952C5.25278 13.3712 5.24043 13.447 5.21365 13.5183C5.18687 13.5896 5.1462 13.655 5.09395 13.7107C5.04171 13.7664 4.97891 13.8113 4.90916 13.8429C4.83941 13.8745 4.76407 13.8921 4.68745 13.8947ZM7.58333 13.3158C7.58333 13.4693 7.52188 13.6166 7.41248 13.7252C7.30308 13.8337 7.15471 13.8947 7 13.8947C6.84529 13.8947 6.69692 13.8337 6.58752 13.7252C6.47813 13.6166 6.41667 13.4693 6.41667 13.3158V5.21053C6.41667 5.05698 6.47813 4.90972 6.58752 4.80115C6.69692 4.69258 6.84529 4.63158 7 4.63158C7.15471 4.63158 7.30308 4.69258 7.41248 4.80115C7.52188 4.90972 7.58333 5.05698 7.58333 5.21053V13.3158ZM8.75 2.31579H5.25V1.44737C5.24956 1.40923 5.2568 1.37139 5.27131 1.33608C5.28581 1.30076 5.30728 1.26867 5.33445 1.24171C5.36162 1.21474 5.39395 1.19343 5.42953 1.17904C5.46512 1.16465 5.50324 1.15746 5.54167 1.15789H8.45833C8.49676 1.15746 8.53488 1.16465 8.57047 1.17904C8.60605 1.19343 8.63838 1.21474 8.66555 1.24171C8.69273 1.26867 8.71419 1.30076 8.72869 1.33608C8.7432 1.37139 8.75044 1.40923 8.75 1.44737V2.31579ZM9.91667 13.3364C9.91128 13.4864 9.84745 13.6284 9.73864 13.7325C9.62982 13.8367 9.48451 13.8948 9.33333 13.8947H9.31219C9.2356 13.892 9.1603 13.8744 9.09059 13.8428C9.02088 13.8112 8.95813 13.7662 8.90592 13.7106C8.85371 13.6549 8.81307 13.5895 8.78631 13.5183C8.75956 13.447 8.74722 13.3712 8.75 13.2952L9.04167 5.1899C9.0444 5.11387 9.06219 5.03912 9.09402 4.96992C9.12586 4.90071 9.17112 4.83841 9.22722 4.78656C9.28331 4.73472 9.34915 4.69435 9.42097 4.66776C9.49279 4.64116 9.56918 4.62887 9.64578 4.63158C9.72239 4.63429 9.7977 4.65194 9.86743 4.68354C9.93716 4.71514 9.99994 4.76006 10.0522 4.81573C10.1044 4.87141 10.1451 4.93675 10.1719 5.00803C10.1987 5.07931 10.2111 5.15512 10.2083 5.23115L9.91667 13.3364Z" fill="white"/>
</svg>
